<svg id="myidb" width="400px" height="400px" fill="#4169E1" version="1.1" viewBox="0 0 400 400" xmlns="http://www.w3.org/2000/svg">
 <path d="m215.7 14.372a74.814 120.87 36.096 0 0-99.147 63.064 74.814 120.87 36.096 0 0-10.758 141.74 74.814 120.87 36.096 0 0 89.837-12.13 31.308 38.541 61.201 0 1 0.047-2e-3 62.334 100.71 36.096 0 1 5.3132-3.5492 62.334 100.71 36.096 0 1 11.084-6.1554 62.334 100.71 36.096 0 1 11.067-4.5039 62.334 100.71 36.096 0 1 10.828-2.7657 62.334 100.71 36.096 0 1 10.361-0.96412 62.334 100.71 36.096 0 1 9.6928 0.85153 62.334 100.71 36.096 0 1 8.8202 2.6507 62.334 100.71 36.096 0 1 7.774 4.3984 62.334 100.71 36.096 0 1 6.5635 6.0545 62.334 100.71 36.096 0 1 5.2217 7.5886 62.334 100.71 36.096 0 1 3.7767 8.968 62.334 100.71 36.096 0 1 2.2496 10.162 62.334 100.71 36.096 0 1 0.67793 11.152 62.334 100.71 36.096 0 1-0.90312 11.914 62.334 100.71 36.096 0 1-2.4701 12.435 62.334 100.71 36.096 0 1-3.9855 12.7 62.334 100.71 36.096 0 1-5.4211 12.709 62.334 100.71 36.096 0 1-6.7441 12.461 62.334 100.71 36.096 0 1-7.9311 11.956 62.334 100.71 36.096 0 1-8.9562 11.203 62.334 100.71 36.096 0 1-9.8007 10.232 62.334 100.71 36.096 0 1-10.441 9.0477 62.334 100.71 36.096 0 1-10.875 7.6801 62.334 100.71 36.096 0 1-11.084 6.1553 62.334 100.71 36.096 0 1-11.067 4.5039 62.334 100.71 36.096 0 1-10.826 2.7633 62.334 100.71 36.096 0 1-10.361 0.96413 62.334 100.71 36.096 0 1-9.6952-0.85153 62.334 100.71 36.096 0 1-8.8202-2.6507 62.334 100.71 36.096 0 1-7.7716-4.3984 62.334 100.71 36.096 0 1-2.3997-1.9001 62.334 100.71 36.096 0 1-2.252-2.0924 62.334 100.71 36.096 0 1-2.0971-2.2778 62.334 100.71 36.096 0 1-1.9376-2.4584 62.334 100.71 36.096 0 1-1.7758-2.632 62.334 100.71 36.096 0 1-1.6045-2.8032 62.334 100.71 36.096 0 1-1.4333-2.9627 62.334 100.71 36.096 0 1-1.2573-3.1222 62.334 100.71 36.096 0 1-1.0814-3.2653 62.334 100.71 36.096 0 1-0.89844-3.4061 62.334 100.71 36.096 0 1-0.71546-3.5374 62.334 100.71 36.096 0 1-0.53015-3.6594 62.334 100.71 36.096 0 1-0.34483-3.772 62.334 100.71 36.096 0 1-0.01-0.19706 74.814 120.87 36.096 0 0 22.121 54.554 74.814 120.87 36.096 0 0 131.66-53.594 74.814 120.87 36.096 0 0 10.758-141.74 74.814 120.87 36.096 0 0-28.555-9.4324 74.814 120.87 36.096 0 0-60.315 20.92 10.219 29.42 54.14 0 1-0.18062 0.0423 62.334 100.71 36.096 0 1-6.146 4.1544 62.334 100.71 36.096 0 1-11.084 6.1554 62.334 100.71 36.096 0 1-11.067 4.5039 62.334 100.71 36.096 0 1-10.826 2.7633 62.334 100.71 36.096 0 1-10.364 0.96646 62.334 100.71 36.096 0 1-9.6928-0.85152 62.334 100.71 36.096 0 1-8.8202-2.6531 62.334 100.71 36.096 0 1-7.7716-4.3984 62.334 100.71 36.096 0 1-6.5659-6.0545 62.334 100.71 36.096 0 1-5.2217-7.5863 62.334 100.71 36.096 0 1-3.7744-8.968 62.334 100.71 36.096 0 1-2.252-10.162 62.334 100.71 36.096 0 1-0.67795-11.152 62.334 100.71 36.096 0 1 0.90314-11.914 62.334 100.71 36.096 0 1 2.4701-12.435 62.334 100.71 36.096 0 1 3.9855-12.702 62.334 100.71 36.096 0 1 5.4211-12.709 62.334 100.71 36.096 0 1 6.7441-12.458 62.334 100.71 36.096 0 1 7.9311-11.956 62.334 100.71 36.096 0 1 8.9562-11.206 62.334 100.71 36.096 0 1 9.8007-10.232 62.334 100.71 36.096 0 1 10.443-9.0454 62.334 100.71 36.096 0 1 10.873-7.6801 62.334 100.71 36.096 0 1 11.084-6.1553 62.334 100.71 36.096 0 1 11.067-4.5039 62.334 100.71 36.096 0 1 10.826-2.7633 62.334 100.71 36.096 0 1 10.361-0.96646 62.334 100.71 36.096 0 1 9.6951 0.85152 62.334 100.71 36.096 0 1 8.8202 2.6531 62.334 100.71 36.096 0 1 7.7716 4.3984 62.334 100.71 36.096 0 1 2.3997 1.9001 62.334 100.71 36.096 0 1 2.252 2.0924 62.334 100.71 36.096 0 1 2.0971 2.2754 62.334 100.71 36.096 0 1 1.9376 2.4584 62.334 100.71 36.096 0 1 1.7758 2.6343 62.334 100.71 36.096 0 1 1.6069 2.8032 62.334 100.71 36.096 0 1 1.4333 2.9627 62.334 100.71 36.096 0 1 1.2574 3.1199 62.334 100.71 36.096 0 1 1.0791 3.2677 62.334 100.71 36.096 0 1 0.89843 3.4037 62.334 100.71 36.096 0 1 0.71548 3.5374 62.334 100.71 36.096 0 1 0.53249 3.6594 62.334 100.71 36.096 0 1 0.34248 3.772 62.334 100.71 36.096 0 1 0.01 0.1994 74.814 120.87 36.096 0 0-22.121-54.554 74.814 120.87 36.096 0 0-32.517-9.4723z" fill="#000" stroke-width="0" style="fill:#4169E1"/>
</svg>
